<svg width="80" height="80" viewBox="0 0 80 80" fill="" xmlns="http://www.w3.org/2000/svg">
<path d="M39.8437 61.5624C41.5697 61.5624 42.9687 60.1634 42.9687 58.4374V32.8124C42.9688 32.2279 42.8048 31.6551 42.4955 31.159C42.1863 30.663 41.7441 30.2637 41.2192 30.0064C40.6943 29.7491 40.1078 29.6442 39.5263 29.7035C38.9448 29.7629 38.3916 29.9842 37.9295 30.3423L31.6795 35.186C30.3151 36.2434 30.0664 38.2063 31.1236 39.5704C32.1811 40.9349 34.1441 41.1835 35.508 40.1263L36.7187 39.1879V58.4374C36.7187 60.1634 38.1178 61.5624 39.8437 61.5624Z" fill=""/>
<path d="M76.8748 39.0624C78.6008 39.0624 79.9998 37.6634 79.9998 35.9374V18.75C79.9998 11.8575 74.3924 6.24999 67.4999 6.24999H63.4374V3.12499C63.4374 1.39906 62.0383 0 60.3124 0C58.5864 0 57.1874 1.39906 57.1874 3.12499V6.24999H42.9687V3.12499C42.9687 1.39906 41.5696 0 39.8437 0C38.1177 0 36.7187 1.39906 36.7187 3.12499V6.24999H22.6562V3.12499C22.6562 1.39906 21.2571 0 19.5312 0C17.8053 0 16.4062 1.39906 16.4062 3.12499V6.24999H12.5C5.60749 6.24999 0 11.8575 0 18.75V67.4999C0 74.3924 5.60749 79.9998 12.5 79.9998H51.8749C51.9811 79.9998 52.0861 79.9944 52.1897 79.9839C52.2929 79.9942 52.3961 80 52.4993 80C52.9197 80.0001 53.3358 79.9153 53.7227 79.7508C54.1095 79.5862 54.4592 79.3453 54.7508 79.0425L79.1258 53.73C79.551 53.2885 79.837 52.7316 79.9481 52.1287C80.0592 51.5258 79.9905 50.9035 79.7505 50.3394C79.5106 49.7752 79.11 49.2941 78.5987 48.9559C78.0874 48.6177 77.4879 48.4374 76.8748 48.4374H61.8749C54.9824 48.4374 49.3749 54.0449 49.3749 60.9374V73.7499H12.5C9.05373 73.7499 6.24999 70.9461 6.24999 67.4999V18.75C6.24999 15.3037 9.05373 12.5 12.5 12.5H16.4062V15.625C16.4062 17.3509 17.8053 18.75 19.5312 18.75C21.2571 18.75 22.6562 17.3509 22.6562 15.625V12.5H36.7187V15.625C36.7187 17.3509 38.1177 18.75 39.8437 18.75C41.5696 18.75 42.9687 17.3509 42.9687 15.625V12.5H57.1874V15.625C57.1874 17.3509 58.5864 18.75 60.3124 18.75C62.0383 18.75 63.4374 17.3509 63.4374 15.625V12.5H67.4999C70.9461 12.5 73.7499 15.3037 73.7499 18.75V35.9374C73.7499 37.6634 75.1489 39.0624 76.8748 39.0624ZM55.6249 60.9374C55.6249 57.4911 58.4286 54.6874 61.8749 54.6874H69.5274L55.6249 69.1244V60.9374Z" fill=""/>
</svg>
