<svg width="16" height="16" viewBox="0 0 16 16"  xmlns="http://www.w3.org/2000/svg">
<path id="Vector" d="M13.625 1.875H10.8125V1.40625C10.8125 0.630844 10.1817 0 9.40625 0H6.59375C5.81834 0 5.1875 0.630844 5.1875 1.40625V1.875H2.375C1.59959 1.875 0.96875 2.50584 0.96875 3.28125V4.21875C0.96875 4.47762 1.17862 4.6875 1.4375 4.6875H1.94322L2.76781 14.717L2.76816 14.7211C2.83447 15.4502 3.43656 16 4.16862 16H11.8313C12.5634 16 13.1655 15.4502 13.2318 14.7211L13.2322 14.717L14.0568 4.6875H14.5625C14.8214 4.6875 15.0312 4.47762 15.0312 4.21875V3.28125C15.0312 2.50584 14.4004 1.875 13.625 1.875ZM6.125 1.40625C6.125 1.14778 6.33528 0.9375 6.59375 0.9375H9.40625C9.66472 0.9375 9.875 1.14778 9.875 1.40625V1.875H6.125V1.40625ZM12.298 14.6377C12.2752 14.88 12.0748 15.0625 11.8313 15.0625H4.16862C4.05177 15.063 3.93898 15.0197 3.85256 14.941C3.76614 14.8624 3.71239 14.7541 3.70194 14.6377L2.88387 4.6875H13.1161L12.298 14.6377ZM14.0938 3.75H1.90625V3.28125C1.90625 3.02278 2.11653 2.8125 2.375 2.8125H13.625C13.8835 2.8125 14.0938 3.02278 14.0938 3.28125V3.75Z" />
<path id="Vector_2" d="M8 5.625C7.74113 5.625 7.53125 5.83487 7.53125 6.09375V12.7188C7.53125 12.9776 7.74113 13.1875 8 13.1875C8.25887 13.1875 8.46875 12.9776 8.46875 12.7188V6.09375C8.46875 5.83487 8.25887 5.625 8 5.625ZM10.8125 5.625C10.5536 5.625 10.3438 5.83487 10.3438 6.09375V12.7188C10.3438 12.9776 10.5536 13.1875 10.8125 13.1875C11.0714 13.1875 11.2812 12.9776 11.2812 12.7188V6.09375C11.2812 5.83487 11.0714 5.625 10.8125 5.625ZM5.1875 5.625C4.92862 5.625 4.71875 5.83487 4.71875 6.09375V12.7188C4.71875 12.9776 4.92862 13.1875 5.1875 13.1875C5.44638 13.1875 5.65625 12.9776 5.65625 12.7188V6.09375C5.65625 5.83487 5.44638 5.625 5.1875 5.625Z" />
<defs>
<clipPath id="clip0_29_158">
<rect width="16" height="16" />
</clipPath>
</defs>
</svg>
