<svg width="49" height="28" viewBox="0 0 49 28" fill="" xmlns="http://www.w3.org/2000/svg">
<path fill-rule="evenodd" clip-rule="evenodd" d="M47.3388 1.22375C48.0469 1.93274 48.4446 2.8938 48.4446 3.89584C48.4446 4.89787 48.0469 5.85893 47.3388 6.56792L27.1721 26.7346C26.4631 27.4427 25.502 27.8404 24.5 27.8404C23.498 27.8404 22.5369 27.4427 21.8279 26.7346L1.66125 6.56792C1.28975 6.22175 0.991772 5.8043 0.785104 5.34047C0.578436 4.87664 0.46731 4.37593 0.458352 3.86822C0.449394 3.36051 0.542788 2.8562 0.732965 2.38536C0.923142 1.91453 1.2062 1.48683 1.56527 1.12777C1.92433 0.768709 2.35203 0.485644 2.82286 0.295467C3.29369 0.10529 3.79801 0.0118942 4.30572 0.0208521C4.81343 0.0298101 5.31413 0.140939 5.77796 0.347606C6.24179 0.554274 6.65924 0.85225 7.00542 1.22375L24.5 18.7183L41.9946 1.22375C42.7036 0.51565 43.6646 0.117913 44.6667 0.117913C45.6687 0.117913 46.6298 0.51565 47.3388 1.22375Z" fill=""/>
</svg>
