<svg width="15" height="16" viewBox="0 0 15 16" xmlns="http://www.w3.org/2000/svg">
<path id="Vector" d="M12.3213 8.00012C12.0254 8.00012 11.7855 8.25595 11.7855 8.57155V14.2857C11.7855 14.6013 11.5457 14.8572 11.2498 14.8572H1.60712C1.31125 14.8572 1.0714 14.6013 1.0714 14.2857V2.85733C1.0714 2.54173 1.31125 2.2859 1.60712 2.2859H8.03561C8.33148 2.2859 8.57132 2.03006 8.57132 1.71447C8.57132 1.39887 8.33148 1.14307 8.03561 1.14307H1.60712C0.719532 1.14307 0 1.91057 0 2.85733V14.2857C0 15.2325 0.719532 16 1.60712 16H11.2499C12.1374 16 12.857 15.2325 12.857 14.2857V8.57152C12.857 8.25595 12.6171 8.00012 12.3213 8.00012Z"/>
<path id="Vector_2" d="M14.3993 0.640904C14.2089 0.437723 13.9828 0.276557 13.7339 0.166611C13.4851 0.0566654 13.2183 9.49324e-05 12.949 0.000131244C12.6795 -0.000704242 12.4126 0.0555385 12.1636 0.165597C11.9147 0.275656 11.6887 0.43734 11.4988 0.641272L4.44247 8.16742C4.38393 8.23034 4.33976 8.30679 4.31336 8.39085L3.24196 11.8194C3.14845 12.1188 3.30022 12.4424 3.58093 12.5421C3.63539 12.5614 3.69242 12.5713 3.7498 12.5714C3.80732 12.5713 3.86445 12.5614 3.91908 12.5422L7.13333 11.3994C7.21227 11.3713 7.28399 11.3239 7.34279 11.2611L14.3991 3.73438C15.2 2.88019 15.2001 1.49519 14.3993 0.640904ZM13.6416 2.92693L6.67743 10.3554L4.59674 11.0965L5.28941 8.87998L12.2563 1.45153C12.6393 1.04379 13.2597 1.04446 13.6419 1.453C13.8245 1.64816 13.9274 1.91238 13.9282 2.18809C13.9285 2.32533 13.9034 2.46127 13.8542 2.58808C13.805 2.7149 13.7328 2.83006 13.6416 2.92693Z" />
<defs>
<clipPath id="clip0_29_153">
<rect width="15" height="16"/>
</clipPath>
</defs>
</svg>
