<svg width="35" height="35" viewBox="0 0 35 35" fill="none" xmlns="http://www.w3.org/2000/svg">
<path d="M28.5715 34.2857C27.7143 34.2857 27.1429 33.7143 27.1429 32.8571V30H24.2857C23.4286 30 22.8572 29.4285 22.8572 28.5714C22.8572 27.7143 23.4286 27.1428 24.2857 27.1428H27.1429V24.2857C27.1429 23.4285 27.7143 22.8571 28.5715 22.8571C29.4286 22.8571 30 23.4285 30 24.2857V27.1428H32.8572C33.7143 27.1428 34.2857 27.7143 34.2857 28.5714C34.2857 29.4285 33.7143 30 32.8572 30H30V32.8571C30 33.7143 29.4286 34.2857 28.5715 34.2857Z" fill="#FB8B13"/>
<path d="M17.1429 34.2857C7.71429 34.2857 0 26.5714 0 17.1429C0 7.71429 7.71429 0 17.1429 0C19.5714 0 21.8571 0.428571 24 1.42857C24.7143 1.71429 25 2.57143 24.7143 3.28571C24.4286 4 23.5714 4.28572 22.8571 4C21.1429 3.28571 19.1429 2.85714 17.1429 2.85714C9.28571 2.85714 2.85714 9.28572 2.85714 17.1429C2.85714 25 9.28571 31.4286 17.1429 31.4286C18.1429 31.4286 19.1429 31.2857 20.1429 31.1429C20.8571 31 21.7143 31.4286 21.8571 32.2857C22 33 21.5714 33.8571 20.7143 34C19.5714 34.1429 18.2857 34.2857 17.1429 34.2857Z" fill="#FB8B13"/>
<path d="M14.2858 21.4286C13.8572 21.4286 13.5715 21.2857 13.2858 21L9.0001 16.7143C8.42868 16.1429 8.42868 15.2857 9.0001 14.7143C9.57153 14.1429 10.4287 14.1429 11.0001 14.7143L14.2858 18L31.8572 0.428571C32.4287 -0.142857 33.2858 -0.142857 33.8572 0.428571C34.4287 1 34.4287 1.85714 33.8572 2.42857L15.2858 21C15.0001 21.2857 14.7144 21.4286 14.2858 21.4286Z" fill="#FB8B13"/>
</svg>
