<svg width="19" height="18" viewBox="0 0 19 18" fill="none" xmlns="http://www.w3.org/2000/svg">
<path d="M7.687 1.2817C7.85697 1.2817 8.01997 1.21418 8.14015 1.094C8.26034 0.973818 8.32785 0.810815 8.32785 0.640851C8.32785 0.470886 8.26034 0.307884 8.14015 0.187701C8.01997 0.0675179 7.85697 0 7.687 0H2.77702C1.24325 0 0 1.24325 0 2.77702V15.223C0 16.7568 1.24325 18 2.77702 18H7.687C7.85697 18 8.01997 17.9325 8.14015 17.8123C8.26034 17.6921 8.32785 17.5291 8.32785 17.3591C8.32785 17.1892 8.26034 17.0262 8.14015 16.906C8.01997 16.7858 7.85697 16.7183 7.687 16.7183H2.77702C2.38044 16.7183 2.0001 16.5608 1.71967 16.2803C1.43924 15.9999 1.2817 15.6196 1.2817 15.223V2.77702C1.2817 2.38044 1.43924 2.0001 1.71967 1.71967C2.0001 1.43924 2.38044 1.2817 2.77702 1.2817H7.687Z" fill="#202020"/>
<path d="M13.8098 4.05316C13.6896 3.93297 13.5266 3.86545 13.3566 3.86545C13.1866 3.86545 13.0236 3.93297 12.9034 4.05317C12.7832 4.17336 12.7157 4.33637 12.7157 4.50635C12.7157 4.67633 12.7832 4.83935 12.9034 4.95954L16.0756 8.13175H4.4055C4.23553 8.13175 4.07253 8.19927 3.95235 8.31945C3.83217 8.43964 3.76465 8.60264 3.76465 8.7726C3.76465 8.94257 3.83217 9.10557 3.95235 9.22575C4.07253 9.34593 4.23553 9.41345 4.4055 9.41345H16.0318L12.9036 12.5414C12.8441 12.601 12.7969 12.6716 12.7647 12.7494C12.7325 12.8271 12.7159 12.9105 12.7159 12.9946C12.7159 13.0788 12.7325 13.1621 12.7647 13.2399C12.7969 13.3177 12.8441 13.3883 12.9036 13.4478C12.9631 13.5073 13.0338 13.5545 13.1115 13.5868C13.1893 13.619 13.2726 13.6355 13.3568 13.6355C13.441 13.6355 13.5243 13.619 13.6021 13.5868C13.6798 13.5545 13.7505 13.5073 13.81 13.4478L18.0236 9.23423C18.0832 9.17474 18.1305 9.10404 18.1626 9.02621C18.1948 8.94837 18.2113 8.86494 18.2111 8.78072V8.7726C18.2111 8.76299 18.2111 8.75359 18.2107 8.74419C18.2141 8.65599 18.1993 8.56803 18.167 8.48586C18.1348 8.40369 18.0859 8.32909 18.0234 8.26676L13.8098 4.05316Z" fill="#202020"/>
</svg>
