<svg width="80" height="80" viewBox="0 0 80 80" fill="" xmlns="http://www.w3.org/2000/svg">
<path d="M40 0C17.9427 0 0 17.9427 0 40C0 62.0573 17.9427 80 40 80C62.0573 80 80 62.0573 80 40C80 17.9427 62.0573 0 40 0ZM40 73.8033C21.3633 73.8033 6.19672 58.6367 6.19672 40C6.19672 21.3633 21.3633 6.19672 40 6.19672C58.6398 6.19672 73.8033 21.3633 73.8033 40C73.8033 58.6367 58.6367 73.8033 40 73.8033Z" fill=""/>
<path d="M36.2249 24.5686C36.2249 24.3348 36.2249 23.8964 36.2249 23.2535C36.2249 22.5521 36.5755 21.8507 37.2769 21.1493C38.0368 20.3895 38.9135 20.0096 39.9071 20.0096C40.9592 20.0096 41.8652 20.3895 42.625 21.1493C43.3849 21.8507 43.7648 22.7274 43.7648 23.7795C43.7648 24.0718 43.7063 24.3348 43.5894 24.5686L41.0469 48.9418H38.8551L36.2249 24.5686ZM36.2249 56.0434C36.2249 54.4068 36.9847 53.2671 38.5044 52.6241C38.9135 52.4488 39.5272 52.3611 40.3455 52.3611C41.1638 52.3027 41.9236 52.6241 42.625 53.3255C43.3849 54.0854 43.7356 54.9913 43.6771 56.0434C43.6771 57.0955 43.3264 58.0015 42.625 58.7613C41.9236 59.4627 41.0177 59.8134 39.9071 59.8134C38.8551 59.8134 37.9783 59.4627 37.2769 58.7613C36.5755 58.0015 36.2249 57.0955 36.2249 56.0434Z" fill=""/>
<defs>
<clipPath id="clip0_62_107">
<rect width="80" height="80" fill=""/>
</clipPath>
</defs>
</svg>
