<svg width="76" height="76" viewBox="0 0 76 76" fill="" xmlns="http://www.w3.org/2000/svg">
<path d="M38 16.75C38.663 16.75 39.2989 16.4866 39.7678 16.0178C40.2366 15.5489 40.5 14.913 40.5 14.25V3C40.5 2.33696 40.2366 1.70107 39.7678 1.23223C39.2989 0.763392 38.663 0.5 38 0.5C37.337 0.5 36.7011 0.763392 36.2322 1.23223C35.7634 1.70107 35.5 2.33696 35.5 3V14.25C35.5 14.913 35.7634 15.5489 36.2322 16.0178C36.7011 16.4866 37.337 16.75 38 16.75ZM54.8 23.7C55.4609 23.7105 56.0991 23.4588 56.575 23L64.5125 15.0625C64.7448 14.8302 64.929 14.5545 65.0547 14.251C65.1804 13.9475 65.2451 13.6222 65.2451 13.2937C65.2451 12.9653 65.1804 12.64 65.0547 12.3365C64.929 12.033 64.7448 11.7573 64.5125 11.525C64.2802 11.2927 64.0045 11.1085 63.701 10.9828C63.3975 10.8571 63.0722 10.7924 62.7437 10.7924C62.4153 10.7924 62.09 10.8571 61.7865 10.9828C61.483 11.1085 61.2073 11.2927 60.975 11.525L53 19.425C52.6458 19.7762 52.4048 20.2252 52.3078 20.7145C52.2109 21.2037 52.2625 21.7108 52.4561 22.1705C52.6496 22.6301 52.9763 23.0214 53.3939 23.294C53.8116 23.5665 54.3013 23.7079 54.8 23.7ZM73 35.5H61.75C61.087 35.5 60.4511 35.7634 59.9822 36.2322C59.5134 36.7011 59.25 37.337 59.25 38C59.25 38.663 59.5134 39.2989 59.9822 39.7678C60.4511 40.2366 61.087 40.5 61.75 40.5H73C73.663 40.5 74.2989 40.2366 74.7678 39.7678C75.2366 39.2989 75.5 38.663 75.5 38C75.5 37.337 75.2366 36.7011 74.7678 36.2322C74.2989 35.7634 73.663 35.5 73 35.5ZM56.575 53C56.1009 52.5259 55.4579 52.2596 54.7875 52.2596C54.1171 52.2596 53.4741 52.5259 53 53C52.5259 53.4741 52.2596 54.1171 52.2596 54.7875C52.2596 55.4579 52.5259 56.1009 53 56.575L60.9375 64.5125C61.4066 64.9816 62.0428 65.2451 62.7062 65.2451C63.3697 65.2451 64.0059 64.9816 64.475 64.5125C64.9441 64.0434 65.2076 63.4072 65.2076 62.7437C65.2076 62.0803 64.9441 61.4441 64.475 60.975L56.575 53ZM38 59.25C37.337 59.25 36.7011 59.5134 36.2322 59.9822C35.7634 60.4511 35.5 61.087 35.5 61.75V73C35.5 73.663 35.7634 74.2989 36.2322 74.7678C36.7011 75.2366 37.337 75.5 38 75.5C38.663 75.5 39.2989 75.2366 39.7678 74.7678C40.2366 74.2989 40.5 73.663 40.5 73V61.75C40.5 61.087 40.2366 60.4511 39.7678 59.9822C39.2989 59.5134 38.663 59.25 38 59.25ZM19.425 53L11.4875 60.9375C11.0184 61.4066 10.7549 62.0428 10.7549 62.7062C10.7549 63.3697 11.0184 64.0059 11.4875 64.475C11.9566 64.9441 12.5928 65.2076 13.2562 65.2076C13.9197 65.2076 14.5559 64.9441 15.025 64.475L23 56.575C23.4741 56.1009 23.7404 55.4579 23.7404 54.7875C23.7404 54.1171 23.4741 53.4741 23 53C22.5259 52.5259 21.8829 52.2596 21.2125 52.2596C20.5421 52.2596 19.8991 52.5259 19.425 53ZM16.75 38C16.75 37.337 16.4866 36.7011 16.0178 36.2322C15.5489 35.7634 14.913 35.5 14.25 35.5H3C2.33696 35.5 1.70107 35.7634 1.23223 36.2322C0.763392 36.7011 0.5 37.337 0.5 38C0.5 38.663 0.763392 39.2989 1.23223 39.7678C1.70107 40.2366 2.33696 40.5 3 40.5H14.25C14.913 40.5 15.5489 40.2366 16.0178 39.7678C16.4866 39.2989 16.75 38.663 16.75 38ZM15.025 11.4875C14.5559 11.0184 13.9197 10.7549 13.2562 10.7549C12.5928 10.7549 11.9566 11.0184 11.4875 11.4875C11.0184 11.9566 10.7549 12.5928 10.7549 13.2562C10.7549 13.9197 11.0184 14.5559 11.4875 15.025L19.425 23C19.8991 23.4741 20.5421 23.7404 21.2125 23.7404C21.8829 23.7404 22.5259 23.4741 23 23C23.4741 22.5259 23.7404 21.8829 23.7404 21.2125C23.7404 20.5421 23.4741 19.8991 23 19.425L15.025 11.4875ZM38 24.6125C34.3792 24.6322 30.9124 26.0793 28.3521 28.6396C25.7918 31.1999 24.3447 34.6667 24.325 38.2875C24.325 38.9505 24.5884 39.5864 25.0572 40.0553C25.5261 40.5241 26.162 40.7875 26.825 40.7875C27.488 40.7875 28.1239 40.5241 28.5928 40.0553C29.0616 39.5864 29.325 38.9505 29.325 38.2875C29.3446 35.9928 30.2648 33.7976 31.8875 32.175C33.5101 30.5523 35.7053 29.6321 38 29.6125C46.6125 29.55 49.875 41.15 42.65 45.6L43.55 43.725C43.8169 43.1312 43.8416 42.4568 43.6189 41.845C43.3963 41.2333 42.9438 40.7326 42.3576 40.4493C41.7715 40.166 41.098 40.1225 40.4803 40.3281C39.8626 40.5336 39.3495 40.972 39.05 41.55L35.75 48.375C35.6014 48.6723 35.5137 48.9963 35.4918 49.328C35.4699 49.6596 35.5144 49.9923 35.6227 50.3066C35.7309 50.6208 35.9007 50.9103 36.1222 51.1582C36.3437 51.406 36.6123 51.6072 36.9125 51.75C37.6125 51.9875 44.1875 55.5 44.825 55.3C45.3907 55.2995 45.9395 55.1072 46.3817 54.7544C46.8239 54.4017 47.1335 53.9094 47.2597 53.3579C47.386 52.8065 47.3215 52.2286 47.0768 51.7186C46.8321 51.2085 46.4216 50.7966 45.9125 50.55L44.95 50.075C56.75 43.1375 51.875 24.625 38 24.6125Z" fill=""/>
</svg>
