<svg width="80" height="80" viewBox="0 0 80 80" fill="" xmlns="http://www.w3.org/2000/svg">
<path d="M54.2525 47.0642L43.0982 38.6986V21.6576C43.0982 19.9442 41.7132 18.5592 39.9998 18.5592C38.2864 18.5592 36.9014 19.9442 36.9014 21.6576V40.248C36.9014 41.2239 37.36 42.1442 38.1407 42.7267L50.5342 52.0219C51.069 52.4247 51.7206 52.6422 52.3901 52.6416C53.3351 52.6416 54.2646 52.217 54.872 51.3991C55.9009 50.0325 55.622 48.0898 54.2525 47.0642Z" fill=""/>
<path d="M40 0C17.9427 0 0 17.9427 0 40C0 62.0573 17.9427 80 40 80C62.0573 80 80 62.0573 80 40C80 17.9427 62.0573 0 40 0ZM40 73.8033C21.3633 73.8033 6.19672 58.6367 6.19672 40C6.19672 21.3633 21.3633 6.19672 40 6.19672C58.6398 6.19672 73.8033 21.3633 73.8033 40C73.8033 58.6367 58.6367 73.8033 40 73.8033Z" fill=""/>
</svg>
